<svg version="1.1" id="Layer_1" xmlns="http://www.w3.org/2000/svg" xmlns:xlink="http://www.w3.org/1999/xlink" x="0px" y="0px"
	 width="100%" viewBox="0 0 1440 900" enable-background="new 0 0 1440 900" xml:space="preserve">
<path fill="#FFFFFF" opacity="1.000000" stroke="none" 
	d="
M1006.000000,901.000000 
	C670.666687,901.000000 335.833344,901.000000 1.000000,901.000000 
	C1.000000,601.000000 1.000000,301.000000 1.000000,1.000000 
	C481.000000,1.000000 961.000000,1.000000 1441.000000,1.000000 
	C1441.000000,301.000000 1441.000000,601.000000 1441.000000,901.000000 
	C1296.166626,901.000000 1151.333374,901.000000 1006.000000,901.000000 
M562.743103,611.371094 
	C562.743103,611.371094 562.715088,611.395630 562.967224,612.003723 
	C568.428955,615.725098 573.890747,619.446411 579.646606,623.764343 
	C580.025269,623.966797 580.403870,624.169189 580.766846,624.432495 
	C580.766846,624.432495 580.749390,624.492920 581.044189,625.065613 
	C585.097412,628.006409 589.150696,630.947205 593.573608,634.156189 
	C595.310059,631.274109 596.725708,628.924438 598.694214,626.227722 
	C598.842224,625.830078 598.990295,625.432495 599.576843,624.829651 
	C599.765076,624.411560 599.953369,623.993408 600.726074,623.216064 
	C600.869507,622.795532 601.012939,622.375000 601.524597,621.720032 
	C601.756714,621.366089 601.988831,621.012146 602.823059,620.286072 
	C609.295715,610.701843 615.768311,601.117676 622.865479,591.219482 
	C629.955627,580.686401 637.045776,570.153320 644.729919,559.284241 
	C644.937805,558.886902 645.145691,558.489624 645.812134,557.907959 
	C645.971313,557.468628 646.130554,557.029297 646.877197,556.221191 
	C656.255798,542.482910 665.634399,528.744629 675.588989,514.670105 
	C685.734070,499.802429 695.879150,484.934692 706.617493,469.744568 
	C707.842773,467.984070 709.089233,466.237946 710.289856,464.460754 
	C718.589478,452.174805 726.879578,439.882446 735.794556,427.242737 
	C745.574768,412.967834 755.354919,398.692963 765.687866,383.981140 
	C782.867188,359.138916 800.046509,334.296692 817.366943,309.250427 
	C811.157959,305.061554 805.016235,300.817505 798.773132,296.728302 
	C787.549133,289.376678 776.264282,282.118073 764.593384,274.307098 
	C762.300537,272.658752 760.152893,270.711273 757.649719,269.496216 
	C756.506714,268.941376 753.872131,269.275055 753.257019,270.149902 
	C745.896729,280.618500 738.789124,291.264771 731.040771,302.180603 
	C721.556824,316.073181 712.072876,329.965759 702.027893,344.192169 
	C700.580627,346.211609 699.089722,348.201416 697.693176,350.255341 
	C689.143311,362.829895 680.614807,375.418945 671.572205,388.449249 
	C669.269714,391.661011 666.900757,394.827484 664.677124,398.092896 
	C657.447449,408.709534 650.270935,419.362335 642.822571,430.172852 
	C642.822571,430.172852 642.879639,430.471832 642.298157,430.793945 
	C642.056335,431.159576 641.814514,431.525208 641.014282,432.225098 
	C633.902344,442.779999 626.790405,453.334900 619.119324,464.218506 
	C612.106140,474.479919 605.092957,484.741302 597.822815,495.121490 
	C597.822815,495.121490 597.853943,495.402863 597.286560,495.745117 
	C597.143677,496.150787 597.000854,496.556488 596.300049,497.313110 
	C591.113281,504.871246 585.926575,512.429382 580.235229,520.408936 
	C574.020386,529.563660 567.805603,538.718384 561.071899,548.253113 
	C551.474731,561.900146 541.877625,575.547119 531.831909,589.831909 
	C541.859497,596.830078 551.937805,603.863586 562.278015,611.263794 
	C562.278015,611.263794 562.720215,611.350464 562.743103,611.371094 
M760.000061,592.500000 
	C760.334045,642.443115 760.676575,692.386230 760.994141,742.329468 
	C761.051331,751.328552 760.922424,760.329773 761.078796,769.326538 
	C761.110229,771.134521 761.806152,774.314392 762.612366,774.453918 
	C764.650940,774.806641 767.360352,774.407715 769.041931,773.227905 
	C792.221863,756.965576 815.262756,740.505310 838.359192,724.123901 
	C863.584045,706.232849 888.823853,688.362854 914.071289,670.503601 
	C931.150513,658.422363 948.207764,646.309326 965.359924,634.332153 
	C982.382568,622.445435 999.619751,610.863892 1016.569031,598.874451 
	C1042.519165,580.518005 1068.261597,561.867981 1094.174072,543.457886 
	C1108.547119,533.246216 1123.014648,523.162903 1137.604858,513.265198 
	C1140.950317,510.995728 1142.100708,508.324738 1142.032471,504.552368 
	C1141.915039,498.054871 1142.000000,491.553711 1142.000000,485.054108 
	C1142.000000,418.724731 1142.026733,352.395294 1141.888306,286.066193 
	C1141.883423,283.753113 1140.919800,280.484070 1139.241333,279.280426 
	C1122.242310,267.090393 1104.995117,255.246750 1087.829956,243.288101 
	C1075.390503,234.621719 1063.009644,225.870667 1050.532593,217.258942 
	C1023.145081,198.356033 995.689575,179.551712 968.307861,160.640472 
	C950.408936,148.278656 932.627747,135.746628 914.728577,123.385193 
	C883.007690,101.478127 851.222107,79.664795 819.494568,57.767292 
	C805.798889,48.314919 792.181763,38.748703 778.526184,29.238161 
	C772.652649,25.147491 766.772095,21.066917 760.000000,16.359850 
	C760.000000,19.203928 760.000000,20.967733 760.000000,22.731537 
	C760.000000,95.893837 760.046875,169.056244 759.875183,242.218155 
	C759.865601,246.297424 761.367859,248.646072 764.363464,250.696838 
	C784.073425,264.190186 803.802429,277.655853 823.469971,291.210754 
	C837.176453,300.657227 850.755737,310.288208 864.461914,319.735077 
	C884.129456,333.290802 903.861938,346.752106 923.564453,360.257111 
	C939.989685,371.515808 956.411560,382.779297 973.037109,394.179291 
	C972.192322,395.128906 971.746582,395.851807 971.110657,396.311554 
	C960.449951,404.018402 949.795349,411.734192 939.079529,419.364044 
	C922.973145,430.832245 906.814880,442.227661 890.688049,453.667358 
	C867.578064,470.060669 844.509277,486.512299 821.361572,502.852081 
	C801.573853,516.820068 781.662476,530.613220 761.937744,544.668884 
	C760.424683,545.747070 759.128967,548.301575 759.140564,550.161011 
	C759.226501,563.941895 759.669312,577.720642 760.000061,592.500000 
M524.048523,836.494202 
	C524.765015,836.891418 525.522827,837.229126 526.191895,837.694458 
	C544.827026,850.654053 563.431519,863.658081 582.122009,876.537109 
	C583.630432,877.576477 585.720215,877.772034 587.932678,878.486633 
	C588.111938,876.540466 588.243347,875.729980 588.253052,874.918030 
	C588.500916,854.111511 588.810425,833.305359 588.958679,812.498047 
	C589.322021,761.516357 589.645569,710.534180 589.798523,659.551636 
	C589.804688,657.499023 588.436096,654.761414 586.810242,653.501526 
	C579.442200,647.791748 571.859619,642.339600 564.155701,637.086060 
	C545.237976,624.185608 526.129883,611.563477 507.249176,598.609619 
	C486.236633,584.193237 465.440796,569.461243 444.455933,555.004089 
	C429.234009,544.517273 413.828094,534.297852 398.561249,523.875732 
	C388.973816,517.330750 379.491821,510.631378 369.870087,503.936951 
	C393.976074,486.851257 417.532776,470.027039 441.227081,453.398956 
	C462.509216,438.463623 483.946564,423.749512 505.308289,408.927521 
	C532.720764,389.907196 560.153137,370.915131 587.456848,351.739929 
	C588.871277,350.746582 589.869019,348.152802 589.872131,346.302185 
	C589.992310,273.811066 589.980591,201.319702 589.933411,128.828400 
	C589.932373,127.220192 589.321045,125.612389 588.871338,123.398460 
	C576.891052,131.623779 565.687073,139.234558 554.569275,146.969055 
	C539.265991,157.615234 524.066711,168.410873 508.752136,179.040573 
	C489.137939,192.654587 469.440979,206.149261 449.803162,219.729355 
	C434.605011,230.239334 419.402374,240.743713 404.274902,251.354904 
	C384.716064,265.074463 365.294281,278.990021 345.696167,292.652863 
	C322.264740,308.988098 298.717407,325.157196 275.203796,341.374329 
	C265.642487,347.968658 255.976410,354.412628 246.467651,361.081329 
	C233.336273,370.290710 220.473557,379.896606 207.114914,388.758545 
	C203.963470,390.849152 202.859497,392.569885 202.966736,396.062775 
	C203.339767,408.213776 203.586487,420.370972 203.692734,432.527435 
	C204.062439,474.829224 204.375153,517.131592 204.662613,559.433960 
	C204.774719,575.931335 204.859406,592.430298 204.732849,608.926819 
	C204.704117,612.670654 205.983612,614.938049 209.062012,617.076538 
	C227.891052,630.156311 246.526382,643.514526 265.310791,656.659180 
	C288.149292,672.640747 311.068085,688.507690 333.958313,704.415344 
	C356.847870,720.322510 379.730804,736.239319 402.643463,752.113220 
	C420.934631,764.785278 439.292175,777.361694 457.572968,790.048767 
	C479.581909,805.323303 501.540894,820.669983 524.048523,836.494202 
z"/>
<path fill="#66FCF1" opacity="1.000000" stroke="none" 
	d="
M760.000000,592.000000 
	C759.669312,577.720642 759.226501,563.941895 759.140564,550.161011 
	C759.128967,548.301575 760.424683,545.747070 761.937744,544.668884 
	C781.662476,530.613220 801.573853,516.820068 821.361572,502.852081 
	C844.509277,486.512299 867.578064,470.060669 890.688049,453.667358 
	C906.814880,442.227661 922.973145,430.832245 939.079529,419.364044 
	C949.795349,411.734192 960.449951,404.018402 971.110657,396.311554 
	C971.746582,395.851807 972.192322,395.128906 973.037109,394.179291 
	C956.411560,382.779297 939.989685,371.515808 923.564453,360.257111 
	C903.861938,346.752106 884.129456,333.290802 864.461914,319.735077 
	C850.755737,310.288208 837.176453,300.657227 823.469971,291.210754 
	C803.802429,277.655853 784.073425,264.190186 764.363464,250.696838 
	C761.367859,248.646072 759.865601,246.297424 759.875183,242.218155 
	C760.046875,169.056244 760.000000,95.893837 760.000000,22.731537 
	C760.000000,20.967733 760.000000,19.203928 760.000000,16.359850 
	C766.772095,21.066917 772.652649,25.147491 778.526184,29.238161 
	C792.181763,38.748703 805.798889,48.314919 819.494568,57.767292 
	C851.222107,79.664795 883.007690,101.478127 914.728577,123.385193 
	C932.627747,135.746628 950.408936,148.278656 968.307861,160.640472 
	C995.689575,179.551712 1023.145081,198.356033 1050.532593,217.258942 
	C1063.009644,225.870667 1075.390503,234.621719 1087.829956,243.288101 
	C1104.995117,255.246750 1122.242310,267.090393 1139.241333,279.280426 
	C1140.919800,280.484070 1141.883423,283.753113 1141.888306,286.066193 
	C1142.026733,352.395294 1142.000000,418.724731 1142.000000,485.054108 
	C1142.000000,491.553711 1141.915039,498.054871 1142.032471,504.552368 
	C1142.100708,508.324738 1140.950317,510.995728 1137.604858,513.265198 
	C1123.014648,523.162903 1108.547119,533.246216 1094.174072,543.457886 
	C1068.261597,561.867981 1042.519165,580.518005 1016.569031,598.874451 
	C999.619751,610.863892 982.382568,622.445435 965.359924,634.332153 
	C948.207764,646.309326 931.150513,658.422363 914.071289,670.503601 
	C888.823853,688.362854 863.584045,706.232849 838.359192,724.123901 
	C815.262756,740.505310 792.221863,756.965576 769.041931,773.227905 
	C767.360352,774.407715 764.650940,774.806641 762.612366,774.453918 
	C761.806152,774.314392 761.110229,771.134521 761.078796,769.326538 
	C760.922424,760.329773 761.051331,751.328552 760.994141,742.329468 
	C760.676575,692.386230 760.334045,642.443115 760.000000,592.000000 
z"/>
<path fill="#45A29E" opacity="1.000000" stroke="none" 
	d="
M523.785034,836.239807 
	C501.540894,820.669983 479.581909,805.323303 457.572968,790.048767 
	C439.292175,777.361694 420.934631,764.785278 402.643463,752.113220 
	C379.730804,736.239319 356.847870,720.322510 333.958313,704.415344 
	C311.068085,688.507690 288.149292,672.640747 265.310791,656.659180 
	C246.526382,643.514526 227.891052,630.156311 209.062012,617.076538 
	C205.983612,614.938049 204.704117,612.670654 204.732849,608.926819 
	C204.859406,592.430298 204.774719,575.931335 204.662613,559.433960 
	C204.375153,517.131592 204.062439,474.829224 203.692734,432.527435 
	C203.586487,420.370972 203.339767,408.213776 202.966736,396.062775 
	C202.859497,392.569885 203.963470,390.849152 207.114914,388.758545 
	C220.473557,379.896606 233.336273,370.290710 246.467651,361.081329 
	C255.976410,354.412628 265.642487,347.968658 275.203796,341.374329 
	C298.717407,325.157196 322.264740,308.988098 345.696167,292.652863 
	C365.294281,278.990021 384.716064,265.074463 404.274902,251.354904 
	C419.402374,240.743713 434.605011,230.239334 449.803162,219.729355 
	C469.440979,206.149261 489.137939,192.654587 508.752136,179.040573 
	C524.066711,168.410873 539.265991,157.615234 554.569275,146.969055 
	C565.687073,139.234558 576.891052,131.623779 588.871338,123.398460 
	C589.321045,125.612389 589.932373,127.220192 589.933411,128.828400 
	C589.980591,201.319702 589.992310,273.811066 589.872131,346.302185 
	C589.869019,348.152802 588.871277,350.746582 587.456848,351.739929 
	C560.153137,370.915131 532.720764,389.907196 505.308289,408.927521 
	C483.946564,423.749512 462.509216,438.463623 441.227081,453.398956 
	C417.532776,470.027039 393.976074,486.851257 369.870087,503.936951 
	C379.491821,510.631378 388.973816,517.330750 398.561249,523.875732 
	C413.828094,534.297852 429.234009,544.517273 444.455933,555.004089 
	C465.440796,569.461243 486.236633,584.193237 507.249176,598.609619 
	C526.129883,611.563477 545.237976,624.185608 564.155701,637.086060 
	C571.859619,642.339600 579.442200,647.791748 586.810242,653.501526 
	C588.436096,654.761414 589.804688,657.499023 589.798523,659.551636 
	C589.645569,710.534180 589.322021,761.516357 588.958679,812.498047 
	C588.810425,833.305359 588.500916,854.111511 588.253052,874.918030 
	C588.243347,875.729980 588.111938,876.540466 587.932678,878.486633 
	C585.720215,877.772034 583.630432,877.576477 582.122009,876.537109 
	C563.431519,863.658081 544.827026,850.654053 526.191895,837.694458 
	C525.522827,837.229126 524.765015,836.891418 523.785034,836.239807 
z"/>
<path fill="#01DFD7" opacity="1.000000" stroke="none" 
	d="
M672.079224,388.003174 
	C680.614807,375.418945 689.143311,362.829895 697.693176,350.255341 
	C699.089722,348.201416 700.580627,346.211609 702.769775,344.065002 
	C707.469543,343.404327 708.079834,345.485596 708.066650,348.950592 
	C707.951294,379.255981 708.160950,409.563354 707.909302,439.867065 
	C707.825623,449.938232 706.682800,460.000580 706.024170,470.066956 
	C695.879150,484.934692 685.734070,499.802429 675.042969,514.622437 
	C675.331116,510.425751 676.867676,506.280426 676.889404,502.127197 
	C677.079651,465.705627 676.963623,429.282532 677.054504,392.860168 
	C677.063721,389.155365 675.728882,387.586273 672.079224,388.003174 
z"/>
<path fill="#01D6CE" opacity="1.000000" stroke="none" 
	d="
M671.825684,388.226196 
	C675.728882,387.586273 677.063721,389.155365 677.054504,392.860168 
	C676.963623,429.282532 677.079651,465.705627 676.889404,502.127197 
	C676.867676,506.280426 675.331116,510.425751 674.755005,514.790527 
	C665.634399,528.744629 656.255798,542.482910 646.505676,555.953491 
	C646.756104,546.618652 647.813049,537.556396 647.914673,528.483459 
	C648.171875,505.520752 648.000061,482.553253 647.999939,459.587646 
	C647.999878,451.599609 647.983704,443.611542 648.006470,435.623566 
	C648.016113,432.263611 647.384766,429.537170 643.073914,430.001221 
	C650.270935,419.362335 657.447449,408.709534 664.677124,398.092896 
	C666.900757,394.827484 669.269714,391.661011 671.825684,388.226196 
z"/>
<path fill="#01E7DE" opacity="1.000000" stroke="none" 
	d="
M706.320801,469.905762 
	C706.682800,460.000580 707.825623,449.938232 707.909302,439.867065 
	C708.160950,409.563354 707.951294,379.255981 708.066650,348.950592 
	C708.079834,345.485596 707.469543,343.404327 703.050293,343.898102 
	C712.072876,329.965759 721.556824,316.073181 731.717163,302.035828 
	C733.710938,301.388794 735.028320,300.886505 737.000000,300.134766 
	C737.000000,302.448364 737.000000,304.229767 737.000000,306.011139 
	C737.000000,337.636993 737.130920,369.263733 736.916260,400.888123 
	C736.855774,409.792999 735.781860,418.690979 735.172729,427.592133 
	C726.879578,439.882446 718.589478,452.174805 710.289856,464.460754 
	C709.089233,466.237946 707.842773,467.984070 706.320801,469.905762 
z"/>
<path fill="#01EEE4" opacity="1.000000" stroke="none" 
	d="
M735.483643,427.417419 
	C735.781860,418.690979 736.855774,409.792999 736.916260,400.888123 
	C737.130920,369.263733 737.000000,337.636993 737.000000,306.011139 
	C737.000000,304.229767 737.000000,302.448364 737.000000,300.134766 
	C735.028320,300.886505 733.710938,301.388794 732.004517,301.877808 
	C738.789124,291.264771 745.896729,280.618500 753.257019,270.149902 
	C753.872131,269.275055 756.506714,268.941376 757.649719,269.496216 
	C760.152893,270.711273 762.300537,272.658752 764.802856,274.976929 
	C765.674927,281.352661 767.020325,287.074615 766.886108,292.761688 
	C766.165039,323.311676 769.095642,353.934784 765.135071,384.418091 
	C755.354919,398.692963 745.574768,412.967834 735.483643,427.417419 
z"/>
<path fill="#01CEC6" opacity="1.000000" stroke="none" 
	d="
M642.948242,430.087036 
	C647.384766,429.537170 648.016113,432.263611 648.006470,435.623566 
	C647.983704,443.611542 647.999878,451.599609 647.999939,459.587646 
	C648.000061,482.553253 648.171875,505.520752 647.914673,528.483459 
	C647.813049,537.556396 646.756104,546.618652 646.211914,556.137817 
	C646.130554,557.029297 645.971313,557.468628 645.256775,558.135620 
	C644.512939,558.782288 644.324463,559.201294 644.135986,559.620300 
	C637.045776,570.153320 629.955627,580.686401 622.489624,590.917236 
	C622.407959,588.659607 622.956299,586.704529 622.958862,584.748779 
	C623.009888,545.978271 623.035461,507.207550 622.858276,468.437836 
	C622.851318,466.916992 620.785156,465.405579 619.678467,463.889771 
	C626.790405,453.334900 633.902344,442.779999 641.626160,431.947998 
	C642.451904,431.271210 642.665771,430.871521 642.879639,430.471832 
	C642.879639,430.471832 642.822571,430.172852 642.948242,430.087036 
z"/>
<path fill="#01C5BF" opacity="1.000000" stroke="none" 
	d="
M619.398926,464.054138 
	C620.785156,465.405579 622.851318,466.916992 622.858276,468.437836 
	C623.035461,507.207550 623.009888,545.978271 622.958862,584.748779 
	C622.956299,586.704529 622.407959,588.659607 622.177368,591.074219 
	C615.768311,601.117676 609.295715,610.701843 602.459900,619.954346 
	C602.064514,617.463013 602.004456,615.303467 602.004089,613.143921 
	C601.998352,575.421082 601.990845,537.698242 602.018555,499.975372 
	C602.020630,497.174164 602.313416,494.352844 598.079773,495.002716 
	C605.092957,484.741302 612.106140,474.479919 619.398926,464.054138 
z"/>
<path fill="#02F5EB" opacity="1.000000" stroke="none" 
	d="
M765.411499,384.199585 
	C769.095642,353.934784 766.165039,323.311676 766.886108,292.761688 
	C767.020325,287.074615 765.674927,281.352661 765.008545,275.233704 
	C776.264282,282.118073 787.549133,289.376678 798.773132,296.728302 
	C805.016235,300.817505 811.157959,305.061554 817.366943,309.250427 
	C800.046509,334.296692 782.867188,359.138916 765.411499,384.199585 
z"/>
<path fill="#01BCB7" opacity="1.000000" stroke="none" 
	d="
M597.951294,495.062103 
	C602.313416,494.352844 602.020630,497.174164 602.018555,499.975372 
	C601.990845,537.698242 601.998352,575.421082 602.004089,613.143921 
	C602.004456,615.303467 602.064514,617.463013 602.158813,620.140381 
	C601.988831,621.012146 601.756714,621.366089 601.058044,622.023560 
	C600.441528,622.743164 600.291565,623.159180 600.141602,623.575256 
	C599.953369,623.993408 599.765076,624.411560 599.076294,625.098511 
	C598.430969,625.769836 598.286194,626.172363 598.141357,626.574829 
	C596.725708,628.924438 595.310059,631.274109 593.573608,634.156189 
	C589.150696,630.947205 585.097412,628.006409 581.285400,624.596802 
	C582.351074,622.180298 583.871582,620.239746 583.891479,618.283936 
	C584.075195,600.185791 584.000000,582.084900 584.000000,563.984863 
	C584.000000,550.866455 583.998230,537.748108 584.001526,524.629700 
	C584.002075,522.310791 584.477722,519.673035 580.739807,519.987549 
	C585.926575,512.429382 591.113281,504.871246 596.862061,496.968872 
	C597.567383,496.217407 597.710693,495.810120 597.853943,495.402863 
	C597.853943,495.402863 597.822815,495.121490 597.951294,495.062103 
z"/>
<path fill="#02B4AF" opacity="1.000000" stroke="none" 
	d="
M580.487549,520.198242 
	C584.477722,519.673035 584.002075,522.310791 584.001526,524.629700 
	C583.998230,537.748108 584.000000,550.866455 584.000000,563.984863 
	C584.000000,582.084900 584.075195,600.185791 583.891479,618.283936 
	C583.871582,620.239746 582.351074,622.180298 581.138000,624.310425 
	C580.749390,624.492920 580.766846,624.432495 580.681396,624.063599 
	C580.181458,623.519043 579.766968,623.343384 579.352478,623.167725 
	C573.890747,619.446411 568.428955,615.725098 563.220581,611.540039 
	C564.311829,609.200012 565.857483,607.331116 565.877441,605.446106 
	C566.064026,587.838623 566.001709,570.228455 565.976440,552.619019 
	C565.972351,549.767639 564.871216,547.773682 561.590820,547.873108 
	C567.805603,538.718384 574.020386,529.563660 580.487549,520.198242 
z"/>
<path fill="#04ADA8" opacity="1.000000" stroke="none" 
	d="
M561.331360,548.063110 
	C564.871216,547.773682 565.972351,549.767639 565.976440,552.619019 
	C566.001709,570.228455 566.064026,587.838623 565.877441,605.446106 
	C565.857483,607.331116 564.311829,609.200012 563.094482,611.235962 
	C562.715088,611.395630 562.743103,611.371094 562.770264,611.160645 
	C562.536987,610.932556 562.276550,610.914856 562.016052,610.897095 
	C551.937805,603.863586 541.859497,596.830078 531.831909,589.831909 
	C541.877625,575.547119 551.474731,561.900146 561.331360,548.063110 
z"/>
<path fill="#01C5BF" opacity="1.000000" stroke="none" 
	d="
M598.417786,626.401245 
	C598.286194,626.172363 598.430969,625.769836 598.857056,625.201111 
	C598.990295,625.432495 598.842224,625.830078 598.417786,626.401245 
z"/>
<path fill="#01BCB7" opacity="1.000000" stroke="none" 
	d="
M579.499512,623.466064 
	C579.766968,623.343384 580.181458,623.519043 580.689209,624.033203 
	C580.403870,624.169189 580.025269,623.966797 579.499512,623.466064 
z"/>
<path fill="#01C5BF" opacity="1.000000" stroke="none" 
	d="
M600.433838,623.395630 
	C600.291565,623.159180 600.441528,622.743164 600.873901,622.140747 
	C601.012939,622.375000 600.869507,622.795532 600.433838,623.395630 
z"/>
<path fill="#02B4AF" opacity="1.000000" stroke="none" 
	d="
M562.147034,611.080444 
	C562.276550,610.914856 562.536987,610.932556 562.758850,611.150391 
	C562.720215,611.350464 562.278015,611.263794 562.147034,611.080444 
z"/>
<path fill="#01D6CE" opacity="1.000000" stroke="none" 
	d="
M644.432983,559.452271 
	C644.324463,559.201294 644.512939,558.782288 645.027466,558.227783 
	C645.145691,558.489624 644.937805,558.886902 644.432983,559.452271 
z"/>
<path fill="#01C5BF" opacity="1.000000" stroke="none" 
	d="
M597.570251,495.573975 
	C597.710693,495.810120 597.567383,496.217407 597.141052,496.793396 
	C597.000854,496.556488 597.143677,496.150787 597.570251,495.573975 
z"/>
<path fill="#01D6CE" opacity="1.000000" stroke="none" 
	d="
M642.588867,430.632874 
	C642.665771,430.871521 642.451904,431.271210 641.905396,431.780884 
	C641.814514,431.525208 642.056335,431.159576 642.588867,430.632874 
z"/>
</svg>